<?xml version="1.0" encoding="UTF-8"?>
<svg width="1024px" height="768px" viewBox="0 0 1024 768" version="1.1" xmlns="http://www.w3.org/2000/svg" xmlns:xlink="http://www.w3.org/1999/xlink">
    <!-- Generator: Sketch 42 (36781) - http://www.bohemiancoding.com/sketch -->
    <title>header</title>
    <desc>Created with Sketch.</desc>
    <defs>
        <linearGradient x1="50%" y1="0%" x2="50%" y2="100%" id="linearGradient-1">
            <stop stop-color="#04B8FC" offset="0%"></stop>
            <stop stop-color="#D9F5FF" offset="100%"></stop>
        </linearGradient>
    </defs>
    <g id="Page-1" stroke="none" stroke-width="1" fill="none" fill-rule="evenodd">
        <g id="header">
            <rect id="Rectangle" fill="url(#linearGradient-1)" x="0" y="0" width="1024" height="768"></rect>
            <polygon id="Rectangle-2" fill="#FFFFFF" points="0 384 512 147.271713 512 768 0 768"></polygon>
            <polygon id="Rectangle-2" fill="#F1F1F1" transform="translate(768.000000, 457.364144) scale(-1, 1) translate(-768.000000, -457.364144) " points="512 383.728287 1024 147 1024 767.728287 512 767.728287"></polygon>
            <path d="M229.973436,310.428219 L229.640394,325.557369 L226.254895,327.059235 L226.583722,312.121593 C226.633608,309.855401 226.32846,308.36306 225.668268,307.644525 C225.008076,306.925989 223.911727,306.906652 222.379189,307.586513 C220.595872,308.377623 219.187571,309.6819 218.154242,311.499382 C217.120914,313.316864 216.57826,315.406548 216.526266,317.768494 L216.223788,331.50921 L212.838289,333.011076 L213.167116,318.073434 C213.2163,315.83916 212.90401,314.357889 212.230237,313.629575 C211.556464,312.901261 210.453325,312.877034 208.920787,313.556895 C207.13747,314.348006 205.722203,315.655373 204.674942,317.479035 C203.627681,319.302698 203.078062,321.395471 203.026068,323.757418 L202.723589,337.498134 L199.338091,339 L199.719614,321.668505 C199.774419,319.178886 199.712497,316.97813 199.533848,315.066172 L202.752162,313.638472 L202.993786,317.703321 C203.612663,315.911664 204.509407,314.34443 205.684044,313.001571 C206.858682,311.658712 208.21225,310.647368 209.744788,309.967507 C211.416647,309.225841 212.773547,309.003169 213.815529,309.299484 C214.85751,309.595798 215.611703,310.430648 216.078129,311.804058 C216.750627,310.083434 217.716152,308.525195 218.974734,307.129294 C220.233316,305.733392 221.642787,304.689346 223.20319,303.997125 C227.856532,301.932821 230.113258,304.076497 229.973436,310.428219 Z M254.203382,290.813812 L253.673254,314.895972 L250.371348,316.360755 L250.46304,312.195451 C249.761976,313.960355 248.803943,315.491566 247.588914,316.78913 C246.373885,318.086694 245.014055,319.069211 243.509381,319.736711 C241.029456,320.836849 239.166208,320.873268 237.91958,319.845968 C236.672952,318.818669 236.084076,316.741059 236.152933,313.613076 L236.48176,298.675433 L239.867258,297.173567 L239.540539,312.015455 C239.492761,314.185893 239.847725,315.608726 240.605442,316.283997 C241.363159,316.959269 242.536133,316.944613 244.1244,316.24003 C245.99131,315.411837 247.511243,314.050137 248.684244,312.15489 C249.857246,310.259643 250.468681,308.178955 250.518567,305.912763 L250.817883,292.315678 L254.203382,290.813812 Z M258.958918,309.801408 L260.150653,306.428162 C261.270606,306.94274 262.410798,307.163869 263.571263,307.091558 C264.731728,307.019246 266.036414,306.661707 267.485359,306.01893 C269.073625,305.314347 270.28559,304.46854 271.121288,303.481482 C271.956987,302.494425 272.387829,301.410426 272.413826,300.229452 C272.434905,299.271906 272.173128,298.62949 271.628489,298.302185 C271.08385,297.974879 270.174177,297.935941 268.899445,298.18537 L265.367839,298.803862 C263.622224,299.135756 262.281424,298.940408 261.345399,298.217811 C260.409374,297.495214 259.958934,296.335977 259.994065,294.740068 C260.040438,292.633466 260.816598,290.590325 262.322566,288.610581 C263.828534,286.630838 265.793587,285.103281 268.217783,284.027865 C269.694592,283.372726 271.081816,283.025981 272.379494,282.987619 C273.677173,282.949256 274.760583,283.242984 275.629758,283.868811 L274.439076,287.19418 C272.502164,286.188645 270.405234,286.186501 268.148224,287.187751 C266.64355,287.85525 265.47303,288.698475 264.636629,289.717451 C263.800227,290.736426 263.369034,291.836384 263.343037,293.017357 C263.321256,294.006822 263.561783,294.674467 264.064626,295.020314 C264.567469,295.366162 265.386583,295.445272 266.521994,295.257649 L270.052546,294.687035 C271.991806,294.332449 273.42334,294.479645 274.347189,295.128627 C275.271038,295.777609 275.713985,296.963874 275.676044,298.687457 C275.630373,300.762139 274.855443,302.749425 273.351232,304.649373 C271.84702,306.549321 269.827118,308.061703 267.291464,309.186563 C263.752695,310.756423 260.975207,310.961369 258.958918,309.801408 Z M298.788361,282.840106 L283.365534,289.681941 C283.325947,292.733727 283.894979,294.772732 285.072649,295.799015 C286.250318,296.825299 287.995496,296.825455 290.308235,295.799484 C292.760296,294.711707 295.038,292.7689 297.141415,289.971005 L298.207732,292.295129 C297.266428,293.69251 296.071964,294.996743 294.624304,296.207867 C293.176644,297.418991 291.700499,298.358289 290.195826,299.025788 C286.907835,300.484398 284.354839,300.518642 282.536762,299.128521 C280.718685,297.7384 279.852168,295.112328 279.937185,291.250226 C279.991287,288.792525 280.457199,286.428727 281.334935,284.158761 C282.212671,281.888795 283.415451,279.893442 284.943312,278.172642 C286.471172,276.451842 288.196395,275.165004 290.119034,274.312088 C292.905466,273.075977 295.069773,273.150951 296.612017,274.53701 C298.154262,275.923069 298.884972,278.451357 298.80417,282.12195 L298.788361,282.840106 Z M285.770264,281.029639 C284.642924,282.730794 283.90177,284.750505 283.546781,287.088833 L295.793091,281.656156 C295.675792,279.46413 295.135557,277.997062 294.17237,277.254908 C293.209184,276.512754 291.849885,276.531051 290.094432,277.309801 C288.33898,278.08855 286.897605,279.328484 285.770264,281.029639 Z M321.787967,260.83211 L321.257839,284.91427 L317.955933,286.379053 L318.047625,282.213749 C317.34656,283.978653 316.388528,285.509864 315.173499,286.807428 C313.95847,288.104992 312.598639,289.087509 311.093966,289.755009 C308.61404,290.855147 306.750792,290.891565 305.504164,289.864266 C304.257537,288.836967 303.66866,286.759357 303.737517,283.631373 L304.066344,268.693731 L307.451843,267.191865 L307.125124,282.033753 C307.077345,284.20419 307.432309,285.627024 308.190027,286.302295 C308.947744,286.977567 310.120718,286.962911 311.708985,286.258328 C313.575894,285.430134 315.095827,284.068435 316.268829,282.173188 C317.44183,280.277941 318.053265,278.197253 318.103151,275.931061 L318.402468,262.333976 L321.787967,260.83211 Z M358.413404,253.450006 L358.080362,268.579156 L354.694863,270.081022 L355.02369,255.14338 C355.073576,252.877188 354.768428,251.384847 354.108236,250.666311 C353.448044,249.947776 352.351695,249.928439 350.819157,250.6083 C349.03584,251.39941 347.627539,252.703687 346.59421,254.521169 C345.560882,256.338651 345.018228,258.428334 344.966234,260.790281 L344.663756,274.530997 L341.278257,276.032863 L341.607084,261.095221 C341.656268,258.860947 341.343978,257.379675 340.670205,256.651361 C339.996432,255.923047 338.893293,255.898821 337.360755,256.578682 C335.577438,257.369792 334.162171,258.677159 333.11491,260.500822 C332.067649,262.324485 331.51803,264.417258 331.466036,266.779205 L331.163557,280.51992 L327.778059,282.021787 L328.159582,264.690292 C328.214387,262.200672 328.152465,259.999917 327.973816,258.087959 L331.19213,256.660259 L331.433754,260.725108 C332.052631,258.933451 332.949375,257.366217 334.124012,256.023358 C335.29865,254.680499 336.652218,253.669154 338.184756,252.989294 C339.856615,252.247628 341.213515,252.024955 342.255497,252.32127 C343.297478,252.617585 344.051671,253.452435 344.518097,254.825845 C345.190595,253.105221 346.15612,251.546982 347.414702,250.15108 C348.673284,248.755179 350.082755,247.711133 351.643158,247.018911 C356.2965,244.954608 358.553226,247.098284 358.413404,253.450006 Z M378.921257,258.148533 C377.439068,257.79465 376.307718,256.858462 375.527176,255.339941 C374.746633,253.821419 374.384121,251.80142 374.439628,249.279883 C374.495135,246.758345 374.954608,244.373699 375.818061,242.125873 C376.681513,239.878046 377.8768,237.909722 379.403958,236.22084 C380.931116,234.531958 382.683852,233.248717 384.662219,232.371079 C386.640586,231.493441 388.370838,231.231567 389.853028,231.58545 C391.335218,231.939333 392.466567,232.875521 393.24711,234.394042 C394.027652,235.912563 394.390165,237.932563 394.334657,240.4541 C394.27915,242.975638 393.819677,245.360284 392.956224,247.60811 C392.092772,249.855936 390.897485,251.824261 389.370327,253.513143 C387.84317,255.202025 386.090434,256.485265 384.112066,257.362904 C382.133699,258.240542 380.403447,258.502416 378.921257,258.148533 Z M389.041422,249.652947 C390.190775,247.578552 390.798817,245.025278 390.865566,241.99305 C390.930207,239.056575 390.409059,237.035837 389.302104,235.930773 C388.195149,234.825709 386.624647,234.724359 384.590551,235.626719 C382.528591,236.541441 380.908676,238.058116 379.730756,240.17679 C378.552836,242.295464 377.931564,244.823 377.866923,247.759475 C377.800174,250.791704 378.313654,252.84745 379.407379,253.926776 C380.501104,255.006103 382.092855,255.082223 384.18268,254.155141 C386.272504,253.228058 387.892069,251.727342 389.041422,249.652947 Z M405.428329,216.877109 C404.785572,217.873394 404.444877,219.249265 404.406233,221.004766 L404.335619,224.212529 L409.476562,221.931917 L409.40911,224.996049 L404.268168,227.276661 L403.805492,248.294689 L400.419993,249.796556 L400.882669,228.778527 L396.786634,230.5956 L396.854085,227.531468 L400.950121,225.714396 L401.031274,222.027862 C401.086781,219.506324 401.679074,217.355113 402.808171,215.574162 C403.937269,213.793212 405.490977,212.463937 407.469345,211.586299 C408.444596,211.15366 409.388807,210.877019 410.302006,210.756366 L410.229285,214.059883 C409.454705,214.150649 408.733054,214.344362 408.06431,214.641028 C406.949737,215.135472 406.071085,215.880825 405.428329,216.877109 Z M443.331549,206.913254 L442.801421,230.995414 L439.457718,232.478739 L439.553626,228.121927 C438.907588,229.894026 437.955643,231.462044 436.697764,232.826027 C435.439884,234.19001 433.988969,235.236639 432.344973,235.965944 C430.478064,236.794137 428.852301,237.009658 427.467636,236.612511 C426.082972,236.215364 425.028073,235.253163 424.302907,233.725879 C423.577742,232.198595 423.242567,230.190173 423.297371,227.700553 C423.352176,225.210934 423.790575,222.843538 424.612583,220.598294 C425.43459,218.353051 426.560744,216.39169 427.991079,214.714154 C429.421414,213.036618 431.05608,211.789952 432.895126,210.974119 C434.539121,210.244814 435.964978,210.023157 437.17274,210.309142 C438.380502,210.595127 439.288298,211.346033 439.896154,212.561883 L439.987846,208.396579 L443.331549,206.913254 Z M437.902327,227.929986 C439.052382,225.823673 439.660073,223.286359 439.725417,220.317966 C439.790761,217.349574 439.28372,215.314675 438.204278,214.213209 C437.124836,213.111743 435.554159,213.018373 433.492199,213.933094 C431.430239,214.847816 429.803006,216.38354 428.610451,218.540313 C427.417896,220.697086 426.789308,223.243671 426.724666,226.180145 C426.660025,229.11662 427.181349,231.129379 428.288655,232.218484 C429.395962,233.307588 430.994503,233.388598 433.084327,232.461516 C435.146287,231.546794 436.752271,230.0363 437.902327,227.929986 Z M461.602846,198.52333 L461.441263,202.103315 C460.806004,202.132275 460.070421,202.332169 459.234492,202.703002 C457.200396,203.605362 455.672794,205.00207 454.651641,206.893167 C453.630488,208.784264 453.097085,210.767124 453.051414,212.841807 L452.748935,226.582523 L449.363437,228.084389 L449.74496,210.752894 C449.799765,208.263275 449.737844,206.062519 449.559194,204.150562 L452.777508,202.722861 L453.013862,207.027095 C453.579118,205.164406 454.45637,203.542607 455.645642,202.16165 C456.834915,200.780692 458.181868,199.756479 459.686541,199.088979 C460.383149,198.779952 461.021911,198.591404 461.602846,198.52333 Z M471.100419,197.628707 L470.810588,210.794898 C470.771241,212.582317 471.064098,213.692937 471.689169,214.126791 C472.314239,214.560645 473.211912,214.51799 474.382214,213.998823 C475.162415,213.652713 475.917902,213.175338 476.648698,212.566686 L476.575977,215.870203 C475.705156,216.572579 474.726407,217.164799 473.639698,217.646882 C471.633466,218.536882 470.08035,218.58585 468.980301,217.793787 C467.880252,217.001725 467.357989,215.344949 467.413496,212.823412 L467.714921,199.130573 L463.618885,200.947646 L463.686337,197.883514 L467.782372,196.066442 L467.918329,189.890301 L471.334392,187 L471.167871,194.564575 L477.186535,191.894591 L477.119084,194.958722 L471.100419,197.628707 Z" id="museum-of-art" fill-opacity="0.449331975" fill="#000000"></path>
            <path d="M227.973436,308.428219 L227.640394,323.557369 L224.254895,325.059235 L224.583722,310.121593 C224.633608,307.855401 224.32846,306.36306 223.668268,305.644525 C223.008076,304.925989 221.911727,304.906652 220.379189,305.586513 C218.595872,306.377623 217.187571,307.6819 216.154242,309.499382 C215.120914,311.316864 214.57826,313.406548 214.526266,315.768494 L214.223788,329.50921 L210.838289,331.011076 L211.167116,316.073434 C211.2163,313.83916 210.90401,312.357889 210.230237,311.629575 C209.556464,310.901261 208.453325,310.877034 206.920787,311.556895 C205.13747,312.348006 203.722203,313.655373 202.674942,315.479035 C201.627681,317.302698 201.078062,319.395471 201.026068,321.757418 L200.723589,335.498134 L197.338091,337 L197.719614,319.668505 C197.774419,317.178886 197.712497,314.97813 197.533848,313.066172 L200.752162,311.638472 L200.993786,315.703321 C201.612663,313.911664 202.509407,312.34443 203.684044,311.001571 C204.858682,309.658712 206.21225,308.647368 207.744788,307.967507 C209.416647,307.225841 210.773547,307.003169 211.815529,307.299484 C212.85751,307.595798 213.611703,308.430648 214.078129,309.804058 C214.750627,308.083434 215.716152,306.525195 216.974734,305.129294 C218.233316,303.733392 219.642787,302.689346 221.20319,301.997125 C225.856532,299.932821 228.113258,302.076497 227.973436,308.428219 Z M252.203382,288.813812 L251.673254,312.895972 L248.371348,314.360755 L248.46304,310.195451 C247.761976,311.960355 246.803943,313.491566 245.588914,314.78913 C244.373885,316.086694 243.014055,317.069211 241.509381,317.736711 C239.029456,318.836849 237.166208,318.873268 235.91958,317.845968 C234.672952,316.818669 234.084076,314.741059 234.152933,311.613076 L234.48176,296.675433 L237.867258,295.173567 L237.540539,310.015455 C237.492761,312.185893 237.847725,313.608726 238.605442,314.283997 C239.363159,314.959269 240.536133,314.944613 242.1244,314.24003 C243.99131,313.411837 245.511243,312.050137 246.684244,310.15489 C247.857246,308.259643 248.468681,306.178955 248.518567,303.912763 L248.817883,290.315678 L252.203382,288.813812 Z M256.958918,307.801408 L258.150653,304.428162 C259.270606,304.94274 260.410798,305.163869 261.571263,305.091558 C262.731728,305.019246 264.036414,304.661707 265.485359,304.01893 C267.073625,303.314347 268.28559,302.46854 269.121288,301.481482 C269.956987,300.494425 270.387829,299.410426 270.413826,298.229452 C270.434905,297.271906 270.173128,296.62949 269.628489,296.302185 C269.08385,295.974879 268.174177,295.935941 266.899445,296.18537 L263.367839,296.803862 C261.622224,297.135756 260.281424,296.940408 259.345399,296.217811 C258.409374,295.495214 257.958934,294.335977 257.994065,292.740068 C258.040438,290.633466 258.816598,288.590325 260.322566,286.610581 C261.828534,284.630838 263.793587,283.103281 266.217783,282.027865 C267.694592,281.372726 269.081816,281.025981 270.379494,280.987619 C271.677173,280.949256 272.760583,281.242984 273.629758,281.868811 L272.439076,285.19418 C270.502164,284.188645 268.405234,284.186501 266.148224,285.187751 C264.64355,285.85525 263.47303,286.698475 262.636629,287.717451 C261.800227,288.736426 261.369034,289.836384 261.343037,291.017357 C261.321256,292.006822 261.561783,292.674467 262.064626,293.020314 C262.567469,293.366162 263.386583,293.445272 264.521994,293.257649 L268.052546,292.687035 C269.991806,292.332449 271.42334,292.479645 272.347189,293.128627 C273.271038,293.777609 273.713985,294.963874 273.676044,296.687457 C273.630373,298.762139 272.855443,300.749425 271.351232,302.649373 C269.84702,304.549321 267.827118,306.061703 265.291464,307.186563 C261.752695,308.756423 258.975207,308.961369 256.958918,307.801408 Z M296.788361,280.840106 L281.365534,287.681941 C281.325947,290.733727 281.894979,292.772732 283.072649,293.799015 C284.250318,294.825299 285.995496,294.825455 288.308235,293.799484 C290.760296,292.711707 293.038,290.7689 295.141415,287.971005 L296.207732,290.295129 C295.266428,291.69251 294.071964,292.996743 292.624304,294.207867 C291.176644,295.418991 289.700499,296.358289 288.195826,297.025788 C284.907835,298.484398 282.354839,298.518642 280.536762,297.128521 C278.718685,295.7384 277.852168,293.112328 277.937185,289.250226 C277.991287,286.792525 278.457199,284.428727 279.334935,282.158761 C280.212671,279.888795 281.415451,277.893442 282.943312,276.172642 C284.471172,274.451842 286.196395,273.165004 288.119034,272.312088 C290.905466,271.075977 293.069773,271.150951 294.612017,272.53701 C296.154262,273.923069 296.884972,276.451357 296.80417,280.12195 L296.788361,280.840106 Z M283.770264,279.029639 C282.642924,280.730794 281.90177,282.750505 281.546781,285.088833 L293.793091,279.656156 C293.675792,277.46413 293.135557,275.997062 292.17237,275.254908 C291.209184,274.512754 289.849885,274.531051 288.094432,275.309801 C286.33898,276.08855 284.897605,277.328484 283.770264,279.029639 Z M319.787967,258.83211 L319.257839,282.91427 L315.955933,284.379053 L316.047625,280.213749 C315.34656,281.978653 314.388528,283.509864 313.173499,284.807428 C311.95847,286.104992 310.598639,287.087509 309.093966,287.755009 C306.61404,288.855147 304.750792,288.891565 303.504164,287.864266 C302.257537,286.836967 301.66866,284.759357 301.737517,281.631373 L302.066344,266.693731 L305.451843,265.191865 L305.125124,280.033753 C305.077345,282.20419 305.432309,283.627024 306.190027,284.302295 C306.947744,284.977567 308.120718,284.962911 309.708985,284.258328 C311.575894,283.430134 313.095827,282.068435 314.268829,280.173188 C315.44183,278.277941 316.053265,276.197253 316.103151,273.931061 L316.402468,260.333976 L319.787967,258.83211 Z M356.413404,251.450006 L356.080362,266.579156 L352.694863,268.081022 L353.02369,253.14338 C353.073576,250.877188 352.768428,249.384847 352.108236,248.666311 C351.448044,247.947776 350.351695,247.928439 348.819157,248.6083 C347.03584,249.39941 345.627539,250.703687 344.59421,252.521169 C343.560882,254.338651 343.018228,256.428334 342.966234,258.790281 L342.663756,272.530997 L339.278257,274.032863 L339.607084,259.095221 C339.656268,256.860947 339.343978,255.379675 338.670205,254.651361 C337.996432,253.923047 336.893293,253.898821 335.360755,254.578682 C333.577438,255.369792 332.162171,256.677159 331.11491,258.500822 C330.067649,260.324485 329.51803,262.417258 329.466036,264.779205 L329.163557,278.51992 L325.778059,280.021787 L326.159582,262.690292 C326.214387,260.200672 326.152465,257.999917 325.973816,256.087959 L329.19213,254.660259 L329.433754,258.725108 C330.052631,256.933451 330.949375,255.366217 332.124012,254.023358 C333.29865,252.680499 334.652218,251.669154 336.184756,250.989294 C337.856615,250.247628 339.213515,250.024955 340.255497,250.32127 C341.297478,250.617585 342.051671,251.452435 342.518097,252.825845 C343.190595,251.105221 344.15612,249.546982 345.414702,248.15108 C346.673284,246.755179 348.082755,245.711133 349.643158,245.018911 C354.2965,242.954608 356.553226,245.098284 356.413404,251.450006 Z M376.921257,256.148533 C375.439068,255.79465 374.307718,254.858462 373.527176,253.339941 C372.746633,251.821419 372.384121,249.80142 372.439628,247.279883 C372.495135,244.758345 372.954608,242.373699 373.818061,240.125873 C374.681513,237.878046 375.8768,235.909722 377.403958,234.22084 C378.931116,232.531958 380.683852,231.248717 382.662219,230.371079 C384.640586,229.493441 386.370838,229.231567 387.853028,229.58545 C389.335218,229.939333 390.466567,230.875521 391.24711,232.394042 C392.027652,233.912563 392.390165,235.932563 392.334657,238.4541 C392.27915,240.975638 391.819677,243.360284 390.956224,245.60811 C390.092772,247.855936 388.897485,249.824261 387.370327,251.513143 C385.84317,253.202025 384.090434,254.485265 382.112066,255.362904 C380.133699,256.240542 378.403447,256.502416 376.921257,256.148533 Z M387.041422,247.652947 C388.190775,245.578552 388.798817,243.025278 388.865566,239.99305 C388.930207,237.056575 388.409059,235.035837 387.302104,233.930773 C386.195149,232.825709 384.624647,232.724359 382.590551,233.626719 C380.528591,234.541441 378.908676,236.058116 377.730756,238.17679 C376.552836,240.295464 375.931564,242.823 375.866923,245.759475 C375.800174,248.791704 376.313654,250.84745 377.407379,251.926776 C378.501104,253.006103 380.092855,253.082223 382.18268,252.155141 C384.272504,251.228058 385.892069,249.727342 387.041422,247.652947 Z M403.428329,214.877109 C402.785572,215.873394 402.444877,217.249265 402.406233,219.004766 L402.335619,222.212529 L407.476562,219.931917 L407.40911,222.996049 L402.268168,225.276661 L401.805492,246.294689 L398.419993,247.796556 L398.882669,226.778527 L394.786634,228.5956 L394.854085,225.531468 L398.950121,223.714396 L399.031274,220.027862 C399.086781,217.506324 399.679074,215.355113 400.808171,213.574162 C401.937269,211.793212 403.490977,210.463937 405.469345,209.586299 C406.444596,209.15366 407.388807,208.877019 408.302006,208.756366 L408.229285,212.059883 C407.454705,212.150649 406.733054,212.344362 406.06431,212.641028 C404.949737,213.135472 404.071085,213.880825 403.428329,214.877109 Z M441.331549,204.913254 L440.801421,228.995414 L437.457718,230.478739 L437.553626,226.121927 C436.907588,227.894026 435.955643,229.462044 434.697764,230.826027 C433.439884,232.19001 431.988969,233.236639 430.344973,233.965944 C428.478064,234.794137 426.852301,235.009658 425.467636,234.612511 C424.082972,234.215364 423.028073,233.253163 422.302907,231.725879 C421.577742,230.198595 421.242567,228.190173 421.297371,225.700553 C421.352176,223.210934 421.790575,220.843538 422.612583,218.598294 C423.43459,216.353051 424.560744,214.39169 425.991079,212.714154 C427.421414,211.036618 429.05608,209.789952 430.895126,208.974119 C432.539121,208.244814 433.964978,208.023157 435.17274,208.309142 C436.380502,208.595127 437.288298,209.346033 437.896154,210.561883 L437.987846,206.396579 L441.331549,204.913254 Z M435.902327,225.929986 C437.052382,223.823673 437.660073,221.286359 437.725417,218.317966 C437.790761,215.349574 437.28372,213.314675 436.204278,212.213209 C435.124836,211.111743 433.554159,211.018373 431.492199,211.933094 C429.430239,212.847816 427.803006,214.38354 426.610451,216.540313 C425.417896,218.697086 424.789308,221.243671 424.724666,224.180145 C424.660025,227.11662 425.181349,229.129379 426.288655,230.218484 C427.395962,231.307588 428.994503,231.388598 431.084327,230.461516 C433.146287,229.546794 434.752271,228.0363 435.902327,225.929986 Z M459.602846,196.52333 L459.441263,200.103315 C458.806004,200.132275 458.070421,200.332169 457.234492,200.703002 C455.200396,201.605362 453.672794,203.00207 452.651641,204.893167 C451.630488,206.784264 451.097085,208.767124 451.051414,210.841807 L450.748935,224.582523 L447.363437,226.084389 L447.74496,208.752894 C447.799765,206.263275 447.737844,204.062519 447.559194,202.150562 L450.777508,200.722861 L451.013862,205.027095 C451.579118,203.164406 452.45637,201.542607 453.645642,200.16165 C454.834915,198.780692 456.181868,197.756479 457.686541,197.088979 C458.383149,196.779952 459.021911,196.591404 459.602846,196.52333 Z M469.100419,195.628707 L468.810588,208.794898 C468.771241,210.582317 469.064098,211.692937 469.689169,212.126791 C470.314239,212.560645 471.211912,212.51799 472.382214,211.998823 C473.162415,211.652713 473.917902,211.175338 474.648698,210.566686 L474.575977,213.870203 C473.705156,214.572579 472.726407,215.164799 471.639698,215.646882 C469.633466,216.536882 468.08035,216.58585 466.980301,215.793787 C465.880252,215.001725 465.357989,213.344949 465.413496,210.823412 L465.714921,197.130573 L461.618885,198.947646 L461.686337,195.883514 L465.782372,194.066442 L465.918329,187.890301 L469.334392,185 L469.167871,192.564575 L475.186535,189.894591 L475.119084,192.958722 L469.100419,195.628707 Z" id="museum-of-art" fill="#FFFFFF"></path>
        </g>
    </g>
</svg>